<svg width="220" height="130" viewBox="0 0 220 130" fill="none" xmlns="http://www.w3.org/2000/svg">
<path d="M50.9654 126.027V114.391H52.3745V120.164H52.5109L57.7381 114.391H59.579L54.6927 119.641L59.579 126.027H57.8745L53.829 120.618L52.3745 122.255V126.027H50.9654ZM62.562 120.777V126.027H61.2211V114.391H62.562V118.664H62.6756C62.8802 118.213 63.187 117.855 63.5961 117.59C64.009 117.321 64.5582 117.186 65.2438 117.186C65.8385 117.186 66.3593 117.306 66.8063 117.544C67.2533 117.779 67.5999 118.141 67.8461 118.63C68.0961 119.114 68.2211 119.732 68.2211 120.482V126.027H66.8802V120.573C66.8802 119.88 66.7003 119.344 66.3404 118.965C65.9843 118.582 65.49 118.391 64.8574 118.391C64.4181 118.391 64.0241 118.484 63.6756 118.669C63.3309 118.855 63.0582 119.126 62.8574 119.482C62.6605 119.838 62.562 120.27 62.562 120.777ZM74.2197 126.209C73.4318 126.209 72.7405 126.022 72.1458 125.647C71.5549 125.272 71.0928 124.747 70.7594 124.073C70.4299 123.399 70.2651 122.611 70.2651 121.709C70.2651 120.8 70.4299 120.007 70.7594 119.328C71.0928 118.65 71.5549 118.124 72.1458 117.749C72.7405 117.374 73.4318 117.186 74.2197 117.186C75.0075 117.186 75.6969 117.374 76.2878 117.749C76.8825 118.124 77.3447 118.65 77.6742 119.328C78.0075 120.007 78.1742 120.8 78.1742 121.709C78.1742 122.611 78.0075 123.399 77.6742 124.073C77.3447 124.747 76.8825 125.272 76.2878 125.647C75.6969 126.022 75.0075 126.209 74.2197 126.209ZM74.2197 125.005C74.8181 125.005 75.3106 124.851 75.6969 124.544C76.0833 124.238 76.3693 123.834 76.5549 123.334C76.7405 122.834 76.8333 122.292 76.8333 121.709C76.8333 121.126 76.7405 120.582 76.5549 120.078C76.3693 119.575 76.0833 119.167 75.6969 118.857C75.3106 118.546 74.8181 118.391 74.2197 118.391C73.6212 118.391 73.1288 118.546 72.7424 118.857C72.356 119.167 72.07 119.575 71.8844 120.078C71.6988 120.582 71.606 121.126 71.606 121.709C71.606 122.292 71.6988 122.834 71.8844 123.334C72.07 123.834 72.356 124.238 72.7424 124.544C73.1288 124.851 73.6212 125.005 74.2197 125.005ZM75.4015 116.255L74.2197 114.664L73.0378 116.255H71.7651V116.164L73.606 113.8H74.8333L76.6742 116.164V116.255H75.4015ZM81.562 120.777V126.027H80.2211V117.3H81.5165V118.664H81.6302C81.8347 118.221 82.1453 117.864 82.562 117.596C82.9787 117.323 83.5165 117.186 84.1756 117.186C84.7665 117.186 85.2836 117.308 85.7268 117.55C86.1699 117.789 86.5146 118.152 86.7609 118.641C87.0071 119.126 87.1302 119.739 87.1302 120.482V126.027H85.7893V120.573C85.7893 119.887 85.6112 119.353 85.2552 118.971C84.8991 118.584 84.4105 118.391 83.7893 118.391C83.3612 118.391 82.9787 118.484 82.6415 118.669C82.3082 118.855 82.0449 119.126 81.8518 119.482C81.6586 119.838 81.562 120.27 81.562 120.777ZM93.1032 129.482C92.4555 129.482 91.8986 129.399 91.4327 129.232C90.9668 129.069 90.5786 128.853 90.268 128.584C89.9611 128.319 89.7168 128.035 89.535 127.732L90.6032 126.982C90.7244 127.141 90.8778 127.323 91.0634 127.527C91.249 127.736 91.5028 127.916 91.8248 128.067C92.1505 128.222 92.5767 128.3 93.1032 128.3C93.8077 128.3 94.3892 128.13 94.8475 127.789C95.3058 127.448 95.535 126.914 95.535 126.186V124.414H95.4214C95.3229 124.573 95.1827 124.77 95.0009 125.005C94.8229 125.236 94.5653 125.442 94.2282 125.624C93.8949 125.802 93.4441 125.891 92.8759 125.891C92.1714 125.891 91.5388 125.724 90.9782 125.391C90.4214 125.058 89.9801 124.573 89.6543 123.936C89.3324 123.3 89.1714 122.527 89.1714 121.618C89.1714 120.724 89.3286 119.946 89.643 119.283C89.9574 118.616 90.3949 118.101 90.9555 117.738C91.5161 117.37 92.1638 117.186 92.8986 117.186C93.4668 117.186 93.9176 117.281 94.2509 117.471C94.588 117.656 94.8456 117.868 95.0236 118.107C95.2055 118.342 95.3456 118.535 95.4441 118.686H95.5805V117.3H96.8759V126.277C96.8759 127.027 96.7055 127.637 96.3646 128.107C96.0274 128.58 95.5729 128.927 95.0009 129.147C94.4327 129.37 93.8002 129.482 93.1032 129.482ZM93.0577 124.686C93.5956 124.686 94.0502 124.563 94.4214 124.317C94.7926 124.071 95.0748 123.717 95.268 123.255C95.4611 122.792 95.5577 122.239 95.5577 121.596C95.5577 120.967 95.463 120.412 95.2736 119.931C95.0842 119.45 94.8039 119.073 94.4327 118.8C94.0615 118.527 93.6032 118.391 93.0577 118.391C92.4896 118.391 92.0161 118.535 91.6373 118.823C91.2623 119.111 90.9801 119.497 90.7907 119.982C90.6051 120.467 90.5123 121.005 90.5123 121.596C90.5123 122.202 90.607 122.738 90.7964 123.203C90.9896 123.666 91.2736 124.029 91.6486 124.294C92.0274 124.556 92.4971 124.686 93.0577 124.686ZM107.376 126.209C106.558 126.209 105.853 126.016 105.262 125.63C104.671 125.243 104.217 124.711 103.899 124.033C103.58 123.355 103.421 122.58 103.421 121.709C103.421 120.823 103.584 120.041 103.91 119.363C104.24 118.681 104.698 118.149 105.285 117.766C105.876 117.38 106.565 117.186 107.353 117.186C107.967 117.186 108.52 117.3 109.012 117.527C109.505 117.755 109.908 118.073 110.223 118.482C110.537 118.891 110.732 119.368 110.808 119.914H109.467C109.365 119.516 109.137 119.164 108.785 118.857C108.437 118.546 107.967 118.391 107.376 118.391C106.853 118.391 106.395 118.527 106.001 118.8C105.611 119.069 105.306 119.45 105.086 119.942C104.87 120.431 104.762 121.005 104.762 121.664C104.762 122.338 104.868 122.925 105.08 123.425C105.296 123.925 105.599 124.313 105.99 124.59C106.383 124.866 106.846 125.005 107.376 125.005C107.724 125.005 108.041 124.944 108.325 124.823C108.609 124.702 108.849 124.527 109.046 124.3C109.243 124.073 109.383 123.8 109.467 123.482H110.808C110.732 123.997 110.544 124.461 110.245 124.874C109.95 125.283 109.558 125.609 109.069 125.851C108.584 126.09 108.02 126.209 107.376 126.209ZM116.313 126.209C115.526 126.209 114.834 126.022 114.24 125.647C113.649 125.272 113.187 124.747 112.853 124.073C112.524 123.399 112.359 122.611 112.359 121.709C112.359 120.8 112.524 120.007 112.853 119.328C113.187 118.65 113.649 118.124 114.24 117.749C114.834 117.374 115.526 117.186 116.313 117.186C117.101 117.186 117.791 117.374 118.382 117.749C118.976 118.124 119.438 118.65 119.768 119.328C120.101 120.007 120.268 120.8 120.268 121.709C120.268 122.611 120.101 123.399 119.768 124.073C119.438 124.747 118.976 125.272 118.382 125.647C117.791 126.022 117.101 126.209 116.313 126.209ZM116.313 125.005C116.912 125.005 117.404 124.851 117.791 124.544C118.177 124.238 118.463 123.834 118.649 123.334C118.834 122.834 118.927 122.292 118.927 121.709C118.927 121.126 118.834 120.582 118.649 120.078C118.463 119.575 118.177 119.167 117.791 118.857C117.404 118.546 116.912 118.391 116.313 118.391C115.715 118.391 115.223 118.546 114.836 118.857C114.45 119.167 114.164 119.575 113.978 120.078C113.793 120.582 113.7 121.126 113.7 121.709C113.7 122.292 113.793 122.834 113.978 123.334C114.164 123.834 114.45 124.238 114.836 124.544C115.223 124.851 115.715 125.005 116.313 125.005ZM115.7 116.118L117.086 113.482H118.654L116.882 116.118H115.7ZM130.11 126.209C129.383 126.209 128.741 126.025 128.184 125.658C127.627 125.287 127.192 124.764 126.877 124.09C126.563 123.412 126.406 122.611 126.406 121.686C126.406 120.77 126.563 119.974 126.877 119.3C127.192 118.626 127.629 118.105 128.19 117.738C128.75 117.37 129.398 117.186 130.133 117.186C130.701 117.186 131.15 117.281 131.48 117.471C131.813 117.656 132.067 117.868 132.241 118.107C132.419 118.342 132.557 118.535 132.656 118.686H132.769V114.391H134.11V126.027H132.815V124.686H132.656C132.557 124.846 132.417 125.046 132.235 125.289C132.053 125.527 131.794 125.741 131.457 125.931C131.12 126.116 130.671 126.209 130.11 126.209ZM130.292 125.005C130.83 125.005 131.285 124.864 131.656 124.584C132.027 124.3 132.309 123.908 132.502 123.408C132.696 122.904 132.792 122.323 132.792 121.664C132.792 121.012 132.697 120.442 132.508 119.953C132.319 119.461 132.038 119.078 131.667 118.806C131.296 118.529 130.838 118.391 130.292 118.391C129.724 118.391 129.25 118.537 128.872 118.828C128.497 119.116 128.214 119.508 128.025 120.005C127.839 120.497 127.747 121.05 127.747 121.664C127.747 122.285 127.841 122.849 128.031 123.357C128.224 123.861 128.508 124.262 128.883 124.561C129.262 124.857 129.732 125.005 130.292 125.005ZM144.616 116.914H145.798C145.798 117.489 145.722 117.972 145.571 118.363C145.419 118.749 145.154 119.041 144.775 119.238C144.396 119.431 143.866 119.527 143.184 119.527V118.596C143.654 118.596 143.987 118.539 144.184 118.425C144.385 118.308 144.506 118.126 144.548 117.88C144.593 117.63 144.616 117.308 144.616 116.914ZM142.252 122.459V117.3H143.593V126.027H142.252V124.55H142.161C141.957 124.993 141.639 125.37 141.207 125.681C140.775 125.988 140.23 126.141 139.571 126.141C139.025 126.141 138.54 126.022 138.116 125.783C137.692 125.541 137.358 125.177 137.116 124.692C136.874 124.203 136.752 123.588 136.752 122.846V117.3H138.093V122.755C138.093 123.391 138.271 123.899 138.627 124.277C138.987 124.656 139.446 124.846 140.002 124.846C140.336 124.846 140.675 124.76 141.019 124.59C141.368 124.419 141.66 124.158 141.894 123.806C142.133 123.453 142.252 123.005 142.252 122.459ZM138.434 116.255L137.389 116.209C137.389 115.63 137.553 115.156 137.883 114.789C138.216 114.417 138.627 114.232 139.116 114.232C139.332 114.232 139.523 114.27 139.69 114.346C139.857 114.417 140.016 114.501 140.167 114.596C140.319 114.69 140.474 114.775 140.633 114.851C140.796 114.923 140.98 114.959 141.184 114.959C141.4 114.959 141.582 114.876 141.73 114.709C141.881 114.539 141.957 114.334 141.957 114.096L142.98 114.186C142.98 114.777 142.813 115.247 142.48 115.596C142.15 115.944 141.741 116.118 141.252 116.118C140.991 116.118 140.775 116.082 140.605 116.01C140.434 115.935 140.283 115.849 140.15 115.755C140.017 115.66 139.877 115.577 139.73 115.505C139.582 115.429 139.4 115.391 139.184 115.391C138.968 115.391 138.788 115.476 138.644 115.647C138.504 115.813 138.434 116.016 138.434 116.255ZM151.205 114.391H152.546V123.755C152.546 124.179 152.594 124.476 152.688 124.647C152.783 124.817 152.978 124.899 153.274 124.891C153.433 124.883 153.55 124.872 153.626 124.857C153.705 124.838 153.777 124.819 153.842 124.8L154.115 125.959C153.997 125.993 153.849 126.024 153.671 126.05C153.493 126.08 153.308 126.096 153.115 126.096C152.478 126.096 152.001 125.921 151.683 125.573C151.365 125.224 151.205 124.739 151.205 124.118V114.391ZM155.346 126.027V117.3H156.687V126.027H155.346ZM156.028 115.846C155.767 115.846 155.541 115.757 155.352 115.578C155.166 115.4 155.073 115.186 155.073 114.936C155.073 114.686 155.166 114.472 155.352 114.294C155.541 114.116 155.767 114.027 156.028 114.027C156.289 114.027 156.513 114.116 156.698 114.294C156.888 114.472 156.982 114.686 156.982 114.936C156.982 115.186 156.888 115.4 156.698 115.578C156.513 115.757 156.289 115.846 156.028 115.846ZM162.802 126.209C161.961 126.209 161.236 126.024 160.626 125.652C160.02 125.277 159.552 124.755 159.223 124.084C158.897 123.41 158.734 122.626 158.734 121.732C158.734 120.838 158.897 120.05 159.223 119.368C159.552 118.683 160.01 118.149 160.598 117.766C161.188 117.38 161.878 117.186 162.666 117.186C163.12 117.186 163.569 117.262 164.012 117.414C164.455 117.565 164.859 117.811 165.223 118.152C165.586 118.489 165.876 118.936 166.092 119.493C166.308 120.05 166.416 120.736 166.416 121.55V122.118H159.688V120.959H165.052C165.052 120.467 164.954 120.027 164.757 119.641C164.563 119.255 164.287 118.95 163.927 118.726C163.571 118.503 163.151 118.391 162.666 118.391C162.132 118.391 161.669 118.524 161.279 118.789C160.893 119.05 160.596 119.391 160.387 119.811C160.179 120.232 160.075 120.683 160.075 121.164V121.936C160.075 122.596 160.188 123.154 160.416 123.613C160.647 124.067 160.967 124.414 161.376 124.652C161.785 124.887 162.26 125.005 162.802 125.005C163.154 125.005 163.473 124.955 163.757 124.857C164.044 124.755 164.293 124.603 164.501 124.402C164.709 124.198 164.87 123.944 164.984 123.641L166.279 124.005C166.143 124.444 165.914 124.83 165.592 125.164C165.27 125.493 164.872 125.751 164.399 125.936C163.925 126.118 163.393 126.209 162.802 126.209ZM163.779 116.255L162.598 114.664L161.416 116.255H160.143V116.164L161.984 113.8H163.211L165.052 116.164V116.255H163.779ZM162.598 128.914C162.336 128.914 162.111 128.825 161.921 128.647C161.736 128.469 161.643 128.255 161.643 128.005C161.643 127.755 161.736 127.541 161.921 127.363C162.111 127.185 162.336 127.096 162.598 127.096C162.859 127.096 163.082 127.185 163.268 127.363C163.457 127.541 163.552 127.755 163.552 128.005C163.552 128.255 163.457 128.469 163.268 128.647C163.082 128.825 162.859 128.914 162.598 128.914ZM173.955 122.459V117.3H175.296V126.027H173.955V124.55H173.865C173.66 124.993 173.342 125.37 172.91 125.681C172.478 125.988 171.933 126.141 171.274 126.141C170.728 126.141 170.243 126.022 169.819 125.783C169.395 125.541 169.062 125.177 168.819 124.692C168.577 124.203 168.455 123.588 168.455 122.846V117.3H169.796V122.755C169.796 123.391 169.974 123.899 170.33 124.277C170.69 124.656 171.149 124.846 171.705 124.846C172.039 124.846 172.378 124.76 172.722 124.59C173.071 124.419 173.363 124.158 173.597 123.806C173.836 123.453 173.955 123.005 173.955 122.459Z" fill="#6C728B"/>
<g opacity="0.5">
<path d="M179.011 8.47375C178.991 8.41564 176.45 1.77163 171.132 0.241383C170.917 0.183272 170.702 0.144531 170.487 0.144531C169.705 0.144531 168.943 0.551307 168.493 1.22927C167.926 2.10093 168.024 3.24378 168.727 4.01859C168.903 4.23166 169.314 5.21954 169.334 6.82728C169.353 8.29942 169.06 9.67471 168.551 10.4495C167.613 11.8442 165.091 14.3817 158.561 15.6601C157.466 15.8732 156.313 15.9894 155.14 15.9894C150.546 15.9894 146.029 14.3236 143.038 13.0839C141.357 12.3865 139.773 11.6505 138.248 10.9338C137.505 10.5851 136.821 10.2752 136.137 9.96526C134.241 9.11297 132.403 8.31879 130.604 8.0476C127.3 5.99435 124.426 4.9871 121.846 4.9871C121.337 4.9871 120.849 5.02584 120.379 5.10332C118.112 5.45199 115.629 6.34302 113.204 7.21468C111.328 7.89264 109.372 8.58997 107.769 8.91927C107.515 8.86116 107.261 8.78367 106.987 8.72556C104.817 8.1832 102.354 7.56335 99.7733 7.31153C99.265 7.25342 98.7175 7.23405 98.1701 7.23405C97.0166 7.23405 95.785 7.35027 94.5142 7.56335C92.9111 7.83453 91.2493 8.28005 89.6266 8.88053C88.1017 9.44226 86.694 10.0815 85.5797 10.7594C84.8172 11.2243 83.9765 11.7667 83.2923 12.5221C83.1163 12.619 82.9404 12.7158 82.8035 12.7933C82.8035 12.7933 82.784 12.7933 82.784 12.8127C82.2561 13.1226 81.6501 13.5294 80.8485 14.0911L80.3011 14.4785C78.913 15.447 77.173 16.648 75.0615 17.9264C68.5317 21.8974 62.1192 24.3961 55.4721 25.5583C53.8885 25.8295 52.3636 25.9651 50.9755 25.9651C46.8308 25.9651 44.4261 24.7835 43.1358 23.7763C41.1025 22.2073 40.5356 19.2436 40.907 18.4882C41.3371 17.6359 41.2003 16.5899 40.5356 15.8732C40.0859 15.3889 39.4407 15.1178 38.7956 15.1178C38.5023 15.1178 38.2091 15.1759 37.9354 15.2727C35.3743 16.28 33.4388 18.062 32.2071 20.6189C30.7799 23.5632 30.3498 28.1733 31.1709 31.5825C32.6959 37.8391 37.1338 42.8172 43.6832 45.6259C47.8083 47.3886 52.6959 48.3184 57.8181 48.3184C58.3069 48.3184 58.7761 48.3184 59.2648 48.299C58.5415 50.2748 57.9941 52.3281 58.0332 53.9164C58.0527 54.8462 58.6197 55.6597 59.4994 56.0084C59.7927 56.1246 60.086 56.1827 60.3792 56.1827C60.9853 56.1827 61.5718 55.9503 62.0214 55.5242C63.2531 54.3426 64.8758 53.7033 66.7331 53.7033C66.8895 53.7033 67.0459 53.7033 67.2023 53.7227C68.8641 53.9939 70.5258 54.1295 71.9726 54.1295C72.1094 54.1295 72.2267 54.1295 72.3636 54.1295C71.5425 59.5532 72.2463 64.357 74.475 68.4635C75.042 69.5289 75.7067 70.5167 76.4106 71.3884C78.1505 73.5773 80.3793 75.4755 83.0772 77.0445C83.8397 77.49 84.6217 77.8968 85.4428 78.2842C85.521 78.323 85.5992 78.3617 85.6774 78.3811C85.7556 78.4004 85.8534 78.4392 85.9316 78.4586C86.1075 78.4973 86.2639 78.5167 86.4399 78.5167C86.7136 78.5167 86.9677 78.4779 87.2219 78.3811C87.6324 78.2455 87.9844 77.9937 88.2581 77.6644C88.4731 77.7612 88.7077 77.8581 88.9423 77.9549L89.2747 78.1099C89.5093 78.2261 89.7634 78.3423 90.0176 78.4586H90.0372C90.0567 78.4586 90.0567 78.4779 90.0763 78.4779C90.8583 78.846 91.7185 79.1946 92.6569 79.4077C95.8241 80.2987 98.8153 81.0348 101.709 81.6547C103.449 82.0227 105.13 82.352 106.792 82.6425C108.415 82.9912 110.057 83.3205 111.758 83.6111C112.285 83.7079 112.794 83.7854 113.322 83.8629C113.85 83.9403 114.377 84.0178 114.905 84.0759C114.514 84.5408 114.221 85.0832 114.045 85.6837C113.674 86.9427 113.947 88.3374 114.788 89.519C115.316 90.2551 116.059 90.9136 117.056 91.5529C118.542 92.502 120.516 93.3156 122.628 93.8386C124.172 94.226 125.756 94.439 127.222 94.439C127.789 94.439 128.317 94.4003 128.825 94.3422C129.92 94.2066 130.839 93.9742 131.601 93.5867C132.833 92.9669 133.674 91.9984 133.967 90.8168C134.28 89.5771 134.084 88.318 133.38 87.059L133.263 86.8653C133.224 86.7878 133.165 86.7103 133.126 86.6328C133.126 86.4004 133.126 86.1098 133.126 85.7805C133.126 84.5796 133.146 82.9718 132.853 81.3447C133.126 81.2091 133.4 81.0735 133.674 80.938C133.908 80.8024 134.162 80.6861 134.397 80.5505C135.101 80.1631 135.766 79.7757 136.372 79.4077C136.43 79.369 136.469 79.3496 136.528 79.3109C136.645 79.214 136.782 79.1365 136.899 79.059C137.017 78.9816 137.134 78.9041 137.251 78.8072C137.799 78.4198 138.385 77.9743 139.03 77.3738C139.304 77.122 139.578 76.8315 139.871 76.5215C139.988 76.4247 140.086 76.3278 140.184 76.231C140.282 76.1341 140.36 76.0566 140.419 75.9598C143.351 75.0107 146.636 72.9961 150.194 69.955C150.331 69.8388 150.467 69.7226 150.624 69.587C150.761 69.4707 150.878 69.3545 151.015 69.2383C151.093 69.1802 151.171 69.1027 151.23 69.0252C151.289 68.9671 151.328 68.9284 151.386 68.8703C153.146 67.2238 154.612 65.4224 155.726 63.6016C157.447 60.7929 158.248 57.9648 158.112 55.2142C157.955 52.0181 157.232 49.0351 155.883 46.1489C156.059 46.1102 156.254 46.0521 156.43 46.0133C156.724 45.9359 157.212 45.839 157.916 45.839C158.835 45.839 159.793 45.994 160.692 46.3039C160.946 46.3814 161.201 46.4201 161.455 46.4201C162.061 46.4201 162.647 46.1877 163.097 45.7615C163.723 45.1611 163.957 44.2506 163.703 43.4177C163.214 41.8681 162.354 39.7567 161.318 37.6066C163.332 37.1418 165.814 36.3088 168.356 34.8561C172.031 32.7447 176.919 28.6576 179.246 21.1419C180.555 16.9579 180.458 12.4447 179.011 8.47375Z" fill="#3C3C3C"/>
<path d="M176.802 9.26788C176.529 8.53181 174.319 3.59239 170.487 2.48828C171.954 4.09601 172.227 9.17103 170.527 11.7473C168.826 14.3041 165.228 16.7448 159.031 17.9458C153.146 19.0886 147.262 17.3453 142.139 15.2145C139.598 14.1492 137.232 12.987 135.179 12.0572C133.127 11.1274 131.367 10.4107 129.842 10.2751V10.2945C126.87 8.37684 123.645 6.92407 120.771 7.38896C116.782 8.00881 111.602 10.6432 107.75 11.3018C105.267 10.7013 102.491 9.92647 99.5977 9.63591C98.1119 9.50032 96.5283 9.59717 94.9838 9.86835C93.4394 10.1395 91.8948 10.5657 90.5068 11.0693C89.1187 11.5729 87.8479 12.154 86.8509 12.7545C85.932 13.2969 85.2477 13.8199 84.8176 14.4397C84.7785 14.4591 84.7394 14.4785 84.7003 14.4785C84.4657 14.556 84.2702 14.6722 84.0356 14.8078C83.5469 15.0983 82.9799 15.4857 82.2369 15.9894C80.7902 16.9966 78.8156 18.3913 76.3327 19.9022C71.3669 22.9239 64.4266 26.3525 55.9221 27.844C49.1186 29.0256 44.4656 27.7471 41.7285 25.6164C38.9915 23.4857 37.8771 19.4179 38.8546 17.4615C37.1929 18.1007 35.5115 19.3017 34.3776 21.6455C33.2632 23.9118 32.7549 27.9408 33.5174 31.0594C34.925 36.8705 39.0502 41.1126 44.6807 43.5145C49.9788 45.7808 56.4891 46.4975 62.9603 45.7034C61.8264 48.1828 60.4187 51.7663 60.4578 53.8776C62.3738 52.0181 64.9153 51.2433 67.5351 51.4176C69.3728 51.7081 71.3669 51.8825 73.146 51.7856C73.9476 51.7275 74.6905 51.6307 75.3552 51.4563C73.6934 58.1584 74.4559 63.3884 76.6065 67.3593C77.1148 68.2891 77.6817 69.1608 78.3073 69.9549C80.5361 72.783 83.4882 74.7781 86.4989 76.1922L87.1441 74.8362C87.6329 74.9137 88.1021 75.0687 88.5517 75.243C89.0014 75.4561 89.4706 75.6498 89.9398 75.8241C91.0346 76.3471 92.1099 76.8895 93.3025 77.1801C97.8968 78.4585 102.569 79.5626 107.281 80.3761C112.032 81.3834 116.861 82.2744 121.592 82.1001C121.592 82.1001 121.592 82.0807 121.611 82.0807C121.69 82.0807 121.768 82.0807 121.846 82.1001C122.472 80.8023 123.312 80.0856 124.974 79.9113C125.033 79.9113 125.091 79.9306 125.15 79.95C125.443 80.0275 125.678 80.105 125.893 80.2018C126.088 80.2793 126.284 80.3955 126.499 80.4924C126.734 80.628 126.949 80.7636 127.242 80.9573C127.301 80.9379 127.379 80.9185 127.437 80.9185C127.437 80.9185 127.437 80.9185 127.457 80.9185C130.155 80.3374 132.872 78.904 135.199 77.5094C136.176 76.812 137.095 76.2503 138.249 74.9525C138.679 74.5651 138.816 74.3714 139.031 74.0227C143.058 72.9573 147.105 69.645 148.728 68.2504C150.722 66.5651 152.482 64.6087 153.772 62.4974C155.14 60.2504 155.942 57.8098 155.844 55.4079C155.629 50.604 153.909 46.9624 152.247 44.3474C153.283 44.3668 154.495 44.2118 155.883 43.8438C157.271 43.4758 159.363 43.4564 161.514 44.1731C160.869 42.1005 159.402 38.7882 157.819 35.9214C160.341 35.6889 163.801 34.8754 167.223 32.919C171.211 30.6333 175.101 26.7592 177.037 20.522C178.288 16.3574 177.936 12.3671 176.802 9.26788ZM144.603 28.58C144.583 28.5994 144.583 28.6188 144.564 28.6381C144.544 28.6188 144.544 28.5994 144.544 28.58C144.564 28.58 144.583 28.58 144.603 28.58Z" fill="#A7A7A7"/>
<path d="M153.733 62.457C152.462 64.5684 150.683 66.5248 148.689 68.21C147.066 69.5853 143.019 72.917 138.992 73.9823C138.776 74.331 138.64 74.5247 138.21 74.9121C137.076 76.2099 136.137 76.7717 135.16 77.469C132.833 78.8637 130.116 80.3164 127.418 80.8782H127.398C127.34 80.8975 127.261 80.9169 127.203 80.9169C126.929 80.7232 126.694 80.5682 126.46 80.452C126.264 80.3552 126.069 80.2583 125.854 80.1615C125.639 80.0646 125.384 79.9871 125.111 79.9096C125.052 79.8903 124.993 79.8903 124.935 79.8709C123.273 80.0452 122.432 80.7426 121.807 82.0597C121.729 82.0597 121.65 82.0597 121.572 82.0404L121.553 82.0597C116.802 82.2341 111.992 81.343 107.242 80.3358C102.53 79.5222 97.8575 78.4181 93.2632 77.1397C92.0706 76.8491 90.9954 76.3068 89.9005 75.7838C89.4313 75.5901 88.9817 75.3964 88.5125 75.2027C88.0432 75.0283 87.5936 74.8927 87.1048 74.7959L86.4597 76.1518C83.4489 74.7378 80.4968 72.7233 78.2681 69.9146C90.7021 73.1688 104.993 74.5053 118.014 72.8782L138.073 69.1591C141.162 68.0163 148.474 66.0018 153.733 62.457Z" fill="#787878"/>
<path d="M131.347 88.2211C131.074 87.7368 130.839 87.3881 130.819 86.9426C130.761 85.8385 130.937 83.6884 130.546 81.7127C130.35 80.7248 130.018 79.7369 129.392 78.9427C129.236 78.749 129.06 78.5553 128.884 78.4003C129.333 77.7805 129.412 77.0057 129.177 76.3665C128.864 75.5142 128.141 74.8168 127.202 74.6425C126.44 74.4875 125.56 74.7006 124.896 75.3011C124.348 75.7854 124.016 76.6183 124.211 77.548C123.136 77.9161 122.198 78.6134 121.435 79.4657C120.145 80.8797 119.265 82.7199 118.659 84.1727C118.561 84.4245 118.288 84.5407 117.779 84.7925C117.271 85.0443 116.606 85.4899 116.352 86.3615C116.157 87.0007 116.372 87.6593 116.743 88.1823C117.134 88.7247 117.681 89.1896 118.366 89.6157C119.715 90.468 121.494 91.1654 123.234 91.6109C125.15 92.0951 127.066 92.2307 128.591 92.0564C129.353 91.9595 130.037 91.8046 130.585 91.5334C131.132 91.2622 131.582 90.8361 131.738 90.2743C131.914 89.4027 131.621 88.7247 131.347 88.2211Z" fill="#787878"/>
<path d="M122.335 86.7305C121.885 86.7886 122.119 87.3503 122.217 87.6215C122.589 88.4932 122.96 89.4229 123.547 90.159C123.899 90.2171 124.192 89.8103 124.505 89.6748C125.15 89.1905 125.893 88.7256 126.323 88.0283C126.362 87.6409 125.815 87.6021 125.56 87.4665C124.524 87.1372 123.429 86.8273 122.335 86.7305Z" fill="#3C3C3C"/>
<path d="M126.733 75.5903C125.912 75.571 125.033 76.2102 125.091 77.0818C125.189 77.5661 125.854 77.3724 126.186 77.4692C126.792 77.4499 127.32 77.7598 127.906 77.8567C128.356 77.7598 128.376 77.1206 128.239 76.7719C128.024 76.1327 127.437 75.571 126.733 75.5903Z" fill="#C7C7C7"/>
<path d="M119.616 86.5548C119.225 86.5548 118.834 86.9423 119.264 87.4846C119.812 88.1045 121.024 88.8405 122.197 89.0924C121.904 87.9883 121.689 86.8454 121.669 86.303C121.122 86.1868 120.242 86.3611 119.616 86.5548Z" fill="#3C3C3C"/>
<path d="M125.345 89.6758C126.244 89.8114 129.04 90.0051 129.47 89.3852C129.235 88.8041 127.769 87.9518 127.241 87.7969C126.518 88.4167 125.892 89.2884 125.345 89.6758Z" fill="#3C3C3C"/>
<path d="M130.623 89.9634C130.584 90.1377 130.428 90.312 130.056 90.5057C129.685 90.6994 129.118 90.8544 128.453 90.9319C127.28 91.0675 125.755 90.99 124.191 90.6607C124.895 90.1571 126.127 89.6147 126.655 89.053C126.948 88.8399 127.046 88.3556 127.398 88.2588C128.14 88.5493 128.786 89.0336 129.372 89.576C129.489 89.6728 129.724 90.0602 129.744 89.7309C129.665 88.8012 128.883 88.0845 128.121 87.6583C126.166 86.5929 123.937 85.9731 121.708 85.8956C121.493 85.8956 121.278 85.8956 121.044 85.915C120.281 85.9731 119.499 86.1668 118.952 86.6898C118.815 86.806 118.698 86.961 118.6 87.1159C119.089 86.9222 119.597 86.806 120.105 86.7285C120.438 86.7285 121.161 86.1668 121.435 86.3992C121.415 87.4065 121.767 88.1232 122.197 89.0142C122.295 89.1692 122.588 89.7116 122.94 90.3895C121.474 89.9827 119.988 89.3629 118.932 88.6849C118.404 88.3363 117.974 87.9876 117.701 87.6583C117.661 87.6196 117.642 87.6002 117.622 87.5615C117.368 87.2128 117.31 86.9416 117.388 86.6898C117.544 86.1668 117.818 86.0312 118.248 85.7988C118.678 85.5857 119.343 85.3339 119.656 84.6172C120.242 83.2031 121.102 81.4792 122.236 80.2201C123.312 79.0385 124.563 78.2831 126.127 78.4381C126.224 78.4574 126.322 78.4574 126.4 78.4768C127.378 78.6511 128.004 79.0579 128.473 79.6584C128.942 80.2589 129.235 81.0724 129.411 81.9441C129.763 83.7261 129.587 85.7407 129.665 87.0191C129.704 87.8133 130.095 88.375 130.35 88.8012C130.623 89.2079 130.76 89.4597 130.623 89.9634Z" fill="#C7C7C7"/>
<path d="M126.146 78.399C124.778 78.9995 123.468 80.1229 122.901 81.6532C122.432 82.9123 121.767 85.198 121.044 85.9147C120.926 86.0309 120.809 86.1084 120.672 86.1277C120.242 86.1858 119.577 86.3795 118.952 86.6895C118.463 86.9413 117.994 87.2512 117.72 87.6386C117.681 87.5999 117.661 87.5805 117.642 87.5418C117.388 87.1931 117.329 86.9219 117.407 86.6701C117.564 86.1471 117.837 86.0115 118.267 85.7791C118.698 85.566 119.362 85.3142 119.675 84.5975C120.262 83.1834 121.122 81.4595 122.256 80.2004C123.311 78.9995 124.563 78.244 126.146 78.399Z" fill="#BCBCBC"/>
<path d="M121.141 86.1289C120.809 87.1168 121.278 88.124 121.728 89.0344C122.197 89.9449 122.745 90.8359 122.842 91.1071C122.901 91.2814 123.057 91.417 123.253 91.4557C123.448 91.4945 123.644 91.4364 123.781 91.3201C123.976 91.1264 124.895 90.6034 125.736 90.003C126.576 89.4025 127.456 88.6664 127.515 87.5817L126.401 87.5042C126.381 87.9691 125.834 88.5696 125.071 89.1119C124.543 89.4993 124.054 89.8093 123.585 90.1385C123.331 89.6349 123.038 89.1507 122.725 88.5502C122.295 87.7173 122.06 86.865 122.197 86.5163L121.141 86.1289Z" fill="#5B5B5B"/>
<path d="M121.533 85.7394C119.793 85.7781 118.64 86.3399 118.366 87.3665C119.969 86.5142 122.589 86.6692 124.896 87.3665C126.05 87.7152 127.144 88.1801 127.985 88.6837C128.826 89.1873 129.432 89.7297 129.608 90.059C130.429 89.7878 129.334 88.1801 128.552 87.7152C127.614 87.1728 126.46 86.6304 125.209 86.3011C123.899 85.9525 122.706 85.72 121.533 85.7394Z" fill="#787878"/>
<path d="M85.4037 20.3292C85.13 22.4211 84.4848 24.6681 84.1525 25.9272C84.0352 26.3339 83.8788 26.9925 83.6637 27.7867C82.9403 30.4404 81.5327 34.5663 78.7566 35.5154C70.2522 35.3605 65.5014 41.0747 63.8787 44.174C57.2707 45.1812 50.5454 44.5033 45.2668 42.2563C39.9686 39.99 36.1367 36.2128 35.0028 30.9053C34.4945 28.5228 34.4358 26.6051 34.6509 25.0749C34.7877 24.1064 35.0223 23.2734 35.3351 22.5567C35.8435 21.3751 36.645 20.7553 37.3684 19.9999C37.4075 22.518 38.2873 25.0942 40.7311 26.9925C43.8982 29.4526 49.04 30.7504 56.1368 29.5107C64.9149 27.9804 72.0508 24.455 77.0948 21.3751C79.6363 19.8255 81.65 18.4115 83.0772 17.4042C83.8006 16.9006 84.3675 16.5132 84.7585 16.2808C84.8172 16.242 84.8367 16.242 84.8758 16.2227C85.1104 16.5132 85.3255 16.8425 85.4232 17.4624C85.5992 18.2759 85.5406 19.2832 85.4037 20.3292Z" fill="white"/>
<path d="M83.6828 27.7861C82.9594 30.4398 81.5518 34.5657 78.7756 35.5148C70.2712 35.3598 65.5204 41.0741 63.8978 44.1733C57.2897 45.1806 50.5644 44.5026 45.2858 42.2557C39.9876 39.9893 36.1558 36.2121 35.0218 30.9047C34.5135 28.5221 34.4549 26.6045 34.6699 25.0742C39.1861 34.0233 52.0502 48.8222 83.6828 27.7861Z" fill="#E6E6E6"/>
<path d="M176.078 13.6826C176.215 15.5808 176.019 17.6535 175.374 19.7648C173.556 25.6146 169.978 29.14 166.263 31.2708C162.549 33.4015 158.658 34.0988 156.43 34.1376C154.142 31.0771 153.497 29.1013 150.955 28.1715C148.668 26.6994 145.188 28.9076 143.174 27.1062C143.116 26.9512 143.038 26.7769 142.959 26.6219C141.063 22.5348 135.96 16.3944 131.62 12.0361C132.441 12.3266 133.38 12.714 134.396 13.1789C136.43 14.0893 138.795 15.2709 141.415 16.3556C146.635 18.5445 152.832 20.4234 159.206 19.1837C165.677 17.9053 169.685 15.329 171.698 12.3073C173.165 10.0797 173.223 7.73588 172.676 5.56641C173.614 6.47681 174.572 7.69714 175.217 9.49857C175.648 10.7576 175.96 12.1717 176.078 13.6826Z" fill="white"/>
<path d="M78.0922 38.6526C79.2848 38.7107 82.3542 37.8778 82.7061 39.4274C81.7677 42.7397 79.578 47.4661 76.9583 49.7518C73.2632 50.9721 65.8341 49.7324 62.7256 51.0689C63.7031 48.1634 64.9739 46.9043 65.2476 46.207C67.4177 42.701 69.881 39.7567 74.0844 39.0981C74.8664 38.9238 77.3297 38.7301 78.0922 38.6526Z" fill="#787878"/>
<path d="M159.48 42.6441C158.307 42.6053 157.134 42.5085 156.039 42.8184C154.064 43.3608 152.579 43.3608 151.66 43.1477C151.21 42.5472 150.819 42.0436 150.467 41.6174C150.448 40.5327 150.252 39.448 149.822 38.4601C149.157 36.9105 147.867 35.2446 146.01 33.9662C145.853 33.6563 145.736 33.3463 145.697 33.0752C146.811 32.8621 149.255 32.9396 150.858 33.5788C151.621 33.9081 153.087 34.8766 154.749 36.5231C156.234 38.0146 157.916 40.0485 159.48 42.6441Z" fill="#787878"/>
<path d="M151.504 48.8409C151.309 48.3373 150.761 47.7562 150.116 47.3107C149.666 47.0008 149.197 46.749 148.787 46.594C148.122 47.6981 147.262 48.4729 146.304 48.6279C149.236 44.1146 148.845 40.7054 147.946 38.5166C147.418 37.2382 146.167 35.766 144.212 34.5844C142.257 33.3835 140.008 32.8024 138.659 33.3447C137.017 34.0033 135.003 35.2236 133.068 36.3084C131.133 37.3737 129.275 38.3423 127.555 38.3229C126.695 38.3035 125.6 38.0517 124.29 37.6837C122.98 37.335 121.494 36.8895 119.989 36.4827C118.503 36.0759 116.998 35.7079 115.707 35.5142C114.417 35.3205 113.342 35.3399 112.775 35.5336C112.13 35.766 110.839 36.4827 109.373 37.49C107.907 38.4779 106.225 39.7563 104.622 41.1122C103.019 42.4681 101.494 43.9015 100.341 45.2381C99.1872 46.5553 98.4247 47.795 98.2879 48.5117C97.8578 50.623 98.718 53.8772 99.9692 56.7828C101.201 59.6883 102.824 62.2839 103.488 63.1168L103.508 63.1362C105.013 65.0926 109.686 68.3468 114.671 70.8262C119.656 73.2862 125.072 75.0102 127.75 74.5647C130.663 74.0998 135.297 70.865 138.718 67.1459C140.419 65.2863 141.866 63.2912 142.706 61.5285C143.41 60.037 143.664 58.7392 143.488 57.8094C137.897 59.1847 133.655 57.5576 131.328 56.1435C130.057 57.4026 127.946 58.3518 127.34 58.7004C125.013 59.9595 122.354 61.0055 120.067 61.6641C116.841 62.5938 113.146 62.8457 109.999 62.4001C106.851 61.9546 104.114 60.7924 103.215 58.468C102.491 56.6278 102.55 54.807 103.351 53.5867C104.622 51.6884 105.561 51.8046 106.636 52.2889C106.069 52.56 105.228 53.2767 104.74 54.2646C104.251 55.2525 104.075 56.4535 104.642 57.9062C105.209 59.359 107.32 60.4631 110.214 60.8699C113.107 61.296 116.626 61.0442 119.617 60.1726C121.787 59.5527 124.368 58.5261 126.577 57.3445C128.786 56.1629 131.445 54.3421 132.071 53.238C132.403 53.7997 132.403 54.3615 132.208 54.8845C134.397 56.2017 138.444 57.7513 143.958 56.1048C147.047 55.175 149.158 53.7804 150.351 52.4051C151.563 50.9717 151.817 49.6932 151.504 48.8409ZM132.286 51.7077C133.029 50.2937 133.166 48.4923 133.029 46.9427C132.873 45.3737 132.384 43.9984 132.188 43.6497C133.615 43.2817 134.456 45.5286 134.573 46.8071C134.769 49.1121 134.397 50.9136 132.286 51.7077Z" fill="#F7F7F7"/>
<path d="M121.044 41.966C120.282 41.3462 118.972 40.707 117.916 40.2614C116.861 39.8353 115.766 39.4866 114.808 39.3123C114.319 39.2348 113.889 39.1767 113.459 39.2155C113.048 39.2348 112.618 39.3123 112.247 39.6222C111.543 40.2033 111.074 41.1525 110.761 42.1985C110.448 43.2638 110.311 44.4454 110.898 45.4527C110.937 45.5302 110.996 45.5883 111.054 45.6464C111.758 46.2662 112.638 46.3243 113.713 46.3631C114.788 46.4018 116.02 46.305 117.232 46.15C118.425 45.9951 119.578 45.7626 120.458 45.4721C121.005 45.2977 121.807 45.0653 122.12 44.4842C122.667 43.4188 121.768 42.5665 121.044 41.966Z" fill="#787878"/>
<path d="M144.642 37.8784C144.153 36.9874 143.43 36.1351 142.354 35.9414C141.572 35.8058 140.81 36.0383 140.067 36.4063C139.324 36.7743 138.581 37.2973 137.916 37.8591C137.252 38.4402 136.646 39.0794 136.196 39.7186C135.746 40.3578 135.394 40.9583 135.414 41.675C135.414 42.198 135.805 42.6242 136.157 42.8179C136.528 43.0116 136.919 43.089 137.349 43.1471C138.21 43.244 139.265 43.2053 140.321 43.0503C141.377 42.8953 142.452 42.6435 143.332 42.2949C143.762 42.1205 144.153 41.9268 144.485 41.675C144.818 41.4232 145.13 41.1133 145.228 40.629C145.424 39.7186 145.13 38.7501 144.642 37.8784Z" fill="#787878"/>
<path d="M132.579 21.0259C131.934 20.3092 130.096 19.1858 128.024 18.3528C125.951 17.5393 123.625 16.9775 121.982 17.0744C122.823 15.118 127.457 16.1446 128.806 16.6483C131.406 17.6168 132.911 19.302 132.579 21.0259Z" fill="#787878"/>
<path d="M137.701 25.6758C136.977 26.315 135.022 27.2448 132.872 27.8259C130.721 28.407 128.356 28.7169 126.733 28.4264C127.339 30.4796 132.07 29.9372 133.478 29.5886C136.156 28.93 137.838 27.4191 137.701 25.6758Z" fill="#3C3C3C"/>
<path d="M110.058 28.8711C109.334 29.5103 107.379 30.4401 105.229 31.0212C103.078 31.6023 100.713 31.9122 99.0898 31.6217C99.6959 33.6749 104.427 33.1326 105.835 32.7839C108.513 32.1253 110.194 30.6144 110.058 28.8711Z" fill="#3C3C3C"/>
<path d="M97.4273 23.1946C96.4889 21.8581 97.8183 19.9985 98.9131 19.3593C101.025 18.1196 103.331 18.8557 103.625 19.7661C102.589 19.8242 100.985 20.231 99.9493 20.754C98.8935 21.3157 97.6814 22.6329 97.4273 23.1946Z" fill="#787878"/>
<path d="M176.079 13.6836C176.216 15.5819 176.02 17.6545 175.375 19.7659C173.557 25.6157 169.979 29.1411 166.265 31.2718C162.55 33.4025 158.659 34.0999 156.431 34.1386C154.143 31.0781 153.498 29.1023 150.957 28.1726C148.669 26.7004 145.189 28.9086 143.176 27.1072C143.117 26.9522 143.039 26.7779 142.96 26.6229C162.354 29.1992 171.758 20.4826 176.079 13.6836Z" fill="#E6E6E6"/>
<path d="M87.5738 62.5544C85.9316 62.5544 84.2894 61.9927 82.96 60.8305C81.8065 59.8426 81.1222 58.4673 81.0245 56.9564C80.9267 55.4455 81.4155 53.9928 82.4321 52.8693C84.133 50.9516 87.0655 50.7579 89.001 52.4431C90.5846 53.8184 90.741 56.2203 89.3529 57.7893C88.1995 59.0871 86.2053 59.2034 84.915 58.0799C84.3872 57.615 84.0743 56.9952 84.0352 56.2978C83.9961 55.6005 84.2112 54.9419 84.6804 54.4189C85.0714 53.9928 85.5993 53.7216 86.1858 53.6828C86.7723 53.6441 87.3392 53.8378 87.7693 54.2252C88.5318 54.8838 88.61 56.046 87.9453 56.8014C87.7694 56.9952 87.4761 57.0145 87.2806 56.8402C87.0851 56.6659 87.0655 56.3753 87.2415 56.1816C87.5738 55.8136 87.5348 55.2518 87.1633 54.9419C86.9092 54.7288 86.5963 54.6126 86.264 54.632C85.9316 54.6514 85.6384 54.8063 85.4233 55.0388C85.13 55.3681 84.9932 55.7942 85.0128 56.2397C85.0323 56.6852 85.2474 57.0726 85.5797 57.3632C86.4986 58.1574 87.8866 58.0605 88.6882 57.1695C89.7244 55.9879 89.6071 54.1865 88.4341 53.1598C86.9092 51.8233 84.5631 51.9783 83.2141 53.4891C82.3734 54.4383 81.9629 55.6392 82.0411 56.8983C82.1193 58.1574 82.6863 59.3002 83.6442 60.1331C86.1467 62.322 89.9786 62.0702 92.1878 59.5908C94.9835 56.4334 94.6706 51.6102 91.4839 48.8403C91.2884 48.6659 91.2689 48.3754 91.4448 48.1817C91.6208 47.988 91.914 47.9686 92.1095 48.1429C95.6872 51.2616 96.0392 56.6659 92.9111 60.2106C91.4644 61.7602 89.5289 62.5544 87.5738 62.5544Z" fill="#787878"/>
</g>
<path d="M203.768 67.4297H198.109C197.262 67.4297 196.575 68.04 196.575 68.7928C196.575 69.5455 197.262 70.1558 198.109 70.1558H203.768C204.615 70.1558 205.302 69.5455 205.302 68.7928C205.302 68.04 204.615 67.4297 203.768 67.4297Z" fill="#6C728B"/>
<path d="M187.445 67.4297H181.801C180.954 67.4297 180.268 68.04 180.268 68.7928C180.268 69.5455 180.954 70.1558 181.801 70.1558H187.445C188.292 70.1558 188.979 69.5455 188.979 68.7928C188.979 68.04 188.292 67.4297 187.445 67.4297Z" fill="#6C728B"/>
<path d="M192.776 72.168C191.929 72.168 191.242 72.7783 191.242 73.531V78.5607C191.242 79.3135 191.929 79.9238 192.776 79.9238C193.623 79.9238 194.31 79.3135 194.31 78.5607V73.531C194.31 72.7779 193.623 72.168 192.776 72.168Z" fill="#6C728B"/>
<path d="M192.777 57.6758C191.93 57.6758 191.243 58.2861 191.243 59.0388V64.0549C191.243 64.8077 191.93 65.418 192.777 65.418C193.624 65.418 194.311 64.8077 194.311 64.0549V59.0388C194.311 58.2861 193.624 57.6758 192.777 57.6758Z" fill="#6C728B"/>
<path d="M35.0775 74.4766C32.0706 74.4766 29.6328 76.6431 29.6328 79.3154C29.6328 81.9877 32.0706 84.1543 35.0775 84.1543C38.0843 84.1543 40.5221 81.9877 40.5221 79.3154C40.5221 76.6431 38.0843 74.4766 35.0775 74.4766ZM35.0775 81.4418C33.7646 81.4418 32.7002 80.4958 32.7002 79.3291C32.7002 79.3246 32.7002 79.3199 32.7002 79.3154C32.7002 78.1561 33.7577 77.2163 35.0621 77.2163C35.0671 77.2163 35.0725 77.2163 35.0775 77.2163C36.3903 77.2163 37.4547 78.1623 37.4547 79.3291C37.4547 80.4958 36.3903 81.4418 35.0775 81.4418Z" fill="#6C728B"/>
<path d="M20.1989 18.3594H14.5396C13.6926 18.3594 13.0059 18.9697 13.0059 19.7224C13.0059 20.4752 13.6926 21.0855 14.5396 21.0855H20.1989C21.0459 21.0855 21.7326 20.4752 21.7326 19.7224C21.7326 18.9697 21.0459 18.3594 20.1989 18.3594Z" fill="#6C728B"/>
<path d="M7.17772 18.3594H1.5337C0.686715 18.3594 0 18.9697 0 19.7224C0 20.4752 0.686715 21.0855 1.5337 21.0855H7.17772C8.02471 21.0855 8.71143 20.4752 8.71143 19.7224C8.71143 18.9697 8.02471 18.3594 7.17772 18.3594Z" fill="#6C728B"/>
<path d="M10.8589 21.625C10.0119 21.625 9.3252 22.2353 9.3252 22.9881V28.0178C9.3252 28.7705 10.0119 29.3808 10.8589 29.3808C11.7059 29.3808 12.3926 28.7705 12.3926 28.0178V22.9881C12.3926 22.235 11.7059 21.625 10.8589 21.625Z" fill="#6C728B"/>
<path d="M10.8589 10.0703C10.0119 10.0703 9.3252 10.6806 9.3252 11.4334V16.4494C9.3252 17.2022 10.0119 17.8125 10.8589 17.8125C11.7059 17.8125 12.3926 17.2022 12.3926 16.4494V11.4334C12.3926 10.6806 11.7059 10.0703 10.8589 10.0703Z" fill="#6C728B"/>
<path d="M214.555 14.6484C211.548 14.6484 209.11 16.815 209.11 19.4873C209.11 22.1596 211.548 24.3262 214.555 24.3262C217.562 24.3262 220 22.1596 220 19.4873C220 16.815 217.562 14.6484 214.555 14.6484ZM214.555 21.6137C213.242 21.6137 212.178 20.6677 212.178 19.5009C212.178 19.4965 212.178 19.4917 212.178 19.4873C212.178 18.328 213.235 17.3882 214.54 17.3882C214.545 17.3882 214.55 17.3882 214.555 17.3882C215.868 17.3882 216.932 18.3342 216.932 19.5009C216.932 20.6677 215.868 21.6137 214.555 21.6137Z" fill="#6C728B"/>
</svg>
