<svg width="16" height="16" viewBox="0 0 16 16" fill="none" xmlns="http://www.w3.org/2000/svg">
<path d="M7.23928 2.34166C7.47928 1.60486 8.5217 1.60486 8.7609 2.34166L9.6169 4.97526C9.66914 5.13565 9.77082 5.27541 9.9073 5.37454C10.0439 5.47369 10.2082 5.52713 10.3769 5.52726H13.1465C13.9217 5.52726 14.2433 6.51926 13.6169 6.97526L11.3769 8.60245C11.2401 8.70165 11.1383 8.84165 11.0859 9.00237C11.0336 9.16301 11.0335 9.33613 11.0857 9.49685L11.9417 12.1304C12.1817 12.8672 11.3377 13.4808 10.7097 13.0248L8.4697 11.3976C8.33306 11.2984 8.1685 11.245 7.99968 11.245C7.83084 11.245 7.66632 11.2984 7.52968 11.3976L5.28968 13.0248C4.66248 13.4808 3.81928 12.8672 4.05848 12.1304L4.91448 9.49685C4.96662 9.33613 4.96653 9.16301 4.91421 9.00237C4.8619 8.84165 4.76005 8.70165 4.62328 8.60245L2.38408 6.97606C1.75768 6.52006 2.08008 5.52806 2.85448 5.52806H5.62328C5.79212 5.5281 5.95665 5.47473 6.0933 5.37558C6.22996 5.27643 6.33174 5.13658 6.38408 4.97606L7.24008 2.34246L7.23928 2.34166Z" fill="#FDCC0B"/>
</svg>
