<svg width="17" height="16" viewBox="0 0 17 16" fill="none" xmlns="http://www.w3.org/2000/svg">
<path d="M8.49967 9.83333C8.22634 9.83333 7.99967 9.60667 7.99967 9.33333V6C7.99967 5.72667 8.22634 5.5 8.49967 5.5C8.77301 5.5 8.99967 5.72667 8.99967 6V9.33333C8.99967 9.60667 8.77301 9.83333 8.49967 9.83333ZM8.49967 12.0001C8.45967 12.0001 8.41301 11.9934 8.36634 11.9867C8.32634 11.9801 8.28634 11.9667 8.24634 11.9467C8.20634 11.9334 8.16634 11.9134 8.12634 11.8867C8.09301 11.8601 8.05967 11.8334 8.02634 11.8067C7.90634 11.6801 7.83301 11.5067 7.83301 11.3334C7.83301 11.1601 7.90634 10.9867 8.02634 10.8601C8.05967 10.8334 8.09301 10.8067 8.12634 10.7801C8.16634 10.7534 8.20634 10.7334 8.24634 10.7201C8.28634 10.7001 8.32634 10.6867 8.36634 10.6801C8.45301 10.6601 8.54634 10.6601 8.62634 10.6801C8.67301 10.6867 8.71301 10.7001 8.75301 10.7201C8.79301 10.7334 8.83301 10.7534 8.87301 10.7801C8.90634 10.8067 8.93967 10.8334 8.97301 10.8601C9.09301 10.9867 9.16634 11.1601 9.16634 11.3334C9.16634 11.5067 9.09301 11.6801 8.97301 11.8067C8.93967 11.8334 8.90634 11.8601 8.87301 11.8867C8.83301 11.9134 8.79301 11.9334 8.75301 11.9467C8.71301 11.9667 8.67301 11.9801 8.62634 11.9867C8.58634 11.9934 8.53967 12.0001 8.49967 12.0001Z" fill="white"/>
<path d="M12.54 14.7732H4.45998C3.15998 14.7732 2.16665 14.2999 1.65998 13.4466C1.15999 12.5932 1.22665 11.4932 1.85998 10.3532L5.89998 3.08656C6.56665 1.88656 7.48668 1.22656 8.50001 1.22656C9.51334 1.22656 10.4333 1.88656 11.1 3.08656L15.14 10.3599C15.7733 11.4999 15.8467 12.5932 15.34 13.4532C14.8333 14.2999 13.84 14.7732 12.54 14.7732ZM8.50001 2.22656C7.87334 2.22656 7.26001 2.70656 6.77332 3.57323L2.73998 10.8466C2.28665 11.6599 2.21332 12.4066 2.52665 12.9466C2.83998 13.4866 3.53332 13.7799 4.46665 13.7799H12.5467C13.48 13.7799 14.1667 13.4866 14.4867 12.9466C14.8067 12.4066 14.7267 11.6666 14.2733 10.8466L10.2267 3.57323C9.74001 2.70656 9.12668 2.22656 8.50001 2.22656Z" fill="white"/>
</svg>
