<svg width="36" height="36" viewBox="0 0 36 36" fill="none" xmlns="http://www.w3.org/2000/svg">
<circle cx="18" cy="18" r="18" fill="#FFF5E7"/>
<path d="M17.7793 10.5C15.8143 10.5 14.2168 12.0975 14.2168 14.0625C14.2168 15.99 15.7243 17.55 17.6893 17.6175C17.7493 17.61 17.8093 17.61 17.8543 17.6175C17.8693 17.6175 17.8768 17.6175 17.8918 17.6175C17.8993 17.6175 17.8993 17.6175 17.9068 17.6175C19.8268 17.55 21.3343 15.99 21.3418 14.0625C21.3418 12.0975 19.7443 10.5 17.7793 10.5ZM21.59 19.6117C19.4975 18.2167 16.085 18.2167 13.9775 19.6117C13.025 20.2492 12.5 21.1117 12.5 22.0342C12.5 22.9567 13.025 23.8117 13.97 24.4417C15.02 25.1467 16.4 25.4992 17.78 25.4992C19.16 25.4992 20.54 25.1467 21.59 24.4417C22.535 23.8042 23.06 22.9492 23.06 22.0192C23.0525 21.0967 22.535 20.2417 21.59 19.6117Z" fill="#FF970D"/>
</svg>
