<svg width="48" height="48" viewBox="0 0 48 48" fill="none" xmlns="http://www.w3.org/2000/svg">
<circle cx="24" cy="24" r="24" fill="#EF4444"/>
<path d="M24.7405 34.2705H24.6105C20.1705 34.2705 18.0305 32.5205 17.6605 28.6005C17.6205 28.1905 17.9205 27.8205 18.3405 27.7805C18.7405 27.7405 19.1205 28.0505 19.1605 28.4605C19.4505 31.6005 20.9305 32.7705 24.6205 32.7705H24.7505C28.8205 32.7705 30.2605 31.3305 30.2605 27.2605V20.7405C30.2605 16.6705 28.8205 15.2305 24.7505 15.2305H24.6205C20.9105 15.2305 19.4305 16.4205 19.1605 19.6205C19.1105 20.0305 18.7605 20.3405 18.3405 20.3005C17.9205 20.2705 17.6205 19.9005 17.6505 19.4905C17.9905 15.5105 20.1405 13.7305 24.6105 13.7305H24.7405C29.6505 13.7305 31.7505 15.8305 31.7505 20.7405V27.2605C31.7505 32.1705 29.6505 34.2705 24.7405 34.2705Z" fill="#F5F5F6"/>
<path d="M24.4991 24.75H13.1191C12.7091 24.75 12.3691 24.41 12.3691 24C12.3691 23.59 12.7091 23.25 13.1191 23.25H24.4991C24.9091 23.25 25.2491 23.59 25.2491 24C25.2491 24.41 24.9091 24.75 24.4991 24.75Z" fill="#F5F5F6"/>
<path d="M15.3495 28.0999C15.1595 28.0999 14.9695 28.0299 14.8195 27.8799L11.4695 24.5299C11.1795 24.2399 11.1795 23.7599 11.4695 23.4699L14.8195 20.1198C15.1095 19.8298 15.5895 19.8298 15.8795 20.1198C16.1695 20.4098 16.1695 20.8898 15.8795 21.1798L13.0595 23.9999L15.8795 26.8199C16.1695 27.1099 16.1695 27.5899 15.8795 27.8799C15.7395 28.0299 15.5395 28.0999 15.3495 28.0999Z" fill="#F5F5F6"/>
</svg>
