<svg width="48" height="48" viewBox="0 0 48 48" fill="none" xmlns="http://www.w3.org/2000/svg">
<circle cx="24" cy="24" r="24" fill="#4B4B59"/>
<path d="M20 23.75C19.59 23.75 19.25 23.41 19.25 23V18C19.25 15.38 21.38 13.25 24 13.25C26.62 13.25 28.75 15.38 28.75 18V18.3C28.75 18.71 28.41 19.05 28 19.05C27.59 19.05 27.25 18.71 27.25 18.3V18C27.25 16.21 25.79 14.75 24 14.75C22.21 14.75 20.75 16.21 20.75 18V23C20.75 23.41 20.41 23.75 20 23.75ZM24.0006 28.25C22.6606 28.25 21.3806 27.68 20.4806 26.69C20.2006 26.38 20.2306 25.91 20.5306 25.63C20.8406 25.35 21.3106 25.38 21.5906 25.68C22.2006 26.36 23.0806 26.75 24.0006 26.75C25.7906 26.75 27.2506 25.29 27.2506 23.5V23C27.2506 22.59 27.5906 22.25 28.0006 22.25C28.4106 22.25 28.7506 22.59 28.7506 23V23.5C28.7506 26.12 26.6206 28.25 24.0006 28.25Z" fill="#909098"/>
<path d="M23.9993 31.7504C21.8693 31.7504 19.8293 30.9504 18.2693 29.5004C17.9693 29.2204 17.9493 28.7404 18.2293 28.4404C18.5193 28.1304 18.9993 28.1204 19.2993 28.4004C20.5793 29.5904 22.2493 30.2504 23.9993 30.2504C27.7993 30.2504 30.8993 27.1504 30.8993 23.3504V21.6504C30.8993 21.2404 31.2393 20.9004 31.6493 20.9004C32.0593 20.9004 32.3993 21.2404 32.3993 21.6504V23.3504C32.3993 27.9804 28.6293 31.7504 23.9993 31.7504ZM16.9496 27.0804C16.6596 27.0804 16.3796 26.9104 16.2596 26.6204C15.8196 25.5804 15.5996 24.4904 15.5996 23.3504V21.6504C15.5996 21.2404 15.9396 20.9004 16.3496 20.9004C16.7596 20.9004 17.0996 21.2404 17.0996 21.6504V23.3504C17.0996 24.2804 17.2796 25.1804 17.6396 26.0304C17.7996 26.4104 17.6196 26.8504 17.2396 27.0104C17.1496 27.0604 17.0496 27.0804 16.9496 27.0804Z" fill="#909098"/>
<path d="M15.9194 31.7393C15.7294 31.7393 15.5394 31.6693 15.3894 31.5193C15.0994 31.2293 15.0994 30.7493 15.3894 30.4593L31.5394 14.3093C31.8294 14.0193 32.3094 14.0193 32.5994 14.3093C32.8894 14.5993 32.8894 15.0793 32.5994 15.3693L16.4594 31.5193C16.3094 31.6693 16.1194 31.7393 15.9194 31.7393ZM23 18.7495C22.59 18.7495 22.25 18.4095 22.25 17.9995V14.9995C22.25 14.5895 22.59 14.2495 23 14.2495C23.41 14.2495 23.75 14.5895 23.75 14.9995V17.9995C23.75 18.4095 23.41 18.7495 23 18.7495ZM24 34.7495C23.59 34.7495 23.25 34.4095 23.25 33.9995V30.9995C23.25 30.5895 23.59 30.2495 24 30.2495C24.41 30.2495 24.75 30.5895 24.75 30.9995V33.9995C24.75 34.4095 24.41 34.7495 24 34.7495Z" fill="#909098"/>
</svg>
