<svg width="48" height="48" viewBox="0 0 48 48" fill="none" xmlns="http://www.w3.org/2000/svg">
<circle cx="24" cy="24" r="24" fill="#384ADC"/>
<path d="M24 28.25C21.38 28.25 19.25 26.12 19.25 23.5V18C19.25 15.38 21.38 13.25 24 13.25C26.62 13.25 28.75 15.38 28.75 18V23.5C28.75 26.12 26.62 28.25 24 28.25ZM24 14.75C22.21 14.75 20.75 16.21 20.75 18V23.5C20.75 25.29 22.21 26.75 24 26.75C25.79 26.75 27.25 25.29 27.25 23.5V18C27.25 16.21 25.79 14.75 24 14.75Z" fill="#F5F5F6"/>
<path d="M23.9996 31.7504C19.3696 31.7504 15.5996 27.9804 15.5996 23.3504V21.6504C15.5996 21.2404 15.9396 20.9004 16.3496 20.9004C16.7596 20.9004 17.0996 21.2404 17.0996 21.6504V23.3504C17.0996 27.1504 20.1996 30.2504 23.9996 30.2504C27.7996 30.2504 30.8996 27.1504 30.8996 23.3504V21.6504C30.8996 21.2404 31.2396 20.9004 31.6496 20.9004C32.0596 20.9004 32.3996 21.2404 32.3996 21.6504V23.3504C32.3996 27.9804 28.6296 31.7504 23.9996 31.7504ZM25.3899 19.1803C25.3099 19.1803 25.2199 19.1703 25.1299 19.1403C24.3999 18.8703 23.5999 18.8703 22.8699 19.1403C22.4799 19.2803 22.0499 19.0803 21.9099 18.6903C21.7699 18.3003 21.9699 17.8703 22.3599 17.7303C23.4199 17.3503 24.5899 17.3503 25.6499 17.7303C26.0399 17.8703 26.2399 18.3003 26.0999 18.6903C25.9799 18.9903 25.6899 19.1803 25.3899 19.1803Z" fill="#F5F5F6"/>
<path d="M24.8001 21.3003C24.7301 21.3003 24.6701 21.2903 24.6001 21.2703C24.2001 21.1603 23.7901 21.1603 23.3901 21.2703C22.9901 21.3803 22.5801 21.1403 22.4701 20.7403C22.3601 20.3503 22.6001 19.9403 23.0001 19.8303C23.6501 19.6503 24.3501 19.6503 25.0001 19.8303C25.4001 19.9403 25.6401 20.3503 25.5301 20.7503C25.4401 21.0803 25.1301 21.3003 24.8001 21.3003ZM24 34.7505C23.59 34.7505 23.25 34.4105 23.25 34.0005V31.0005C23.25 30.5905 23.59 30.2505 24 30.2505C24.41 30.2505 24.75 30.5905 24.75 31.0005V34.0005C24.75 34.4105 24.41 34.7505 24 34.7505Z" fill="#F5F5F6"/>
</svg>
