<svg width="48" height="48" viewBox="0 0 48 48" fill="none" xmlns="http://www.w3.org/2000/svg">
<circle cx="24" cy="24" r="24" fill="#384ADC"/>
<path d="M29.56 29.97H18.44C14.46 29.97 13.25 28.76 13.25 24.78V18.44C13.25 14.46 14.46 13.25 18.44 13.25H29.55C33.53 13.25 34.74 14.46 34.74 18.44V24.77C34.75 28.76 33.54 29.97 29.56 29.97ZM18.44 14.75C15.3 14.75 14.75 15.3 14.75 18.44V24.77C14.75 27.91 15.3 28.46 18.44 28.46H29.55C32.69 28.46 33.24 27.91 33.24 24.77V18.44C33.24 15.3 32.69 14.75 29.55 14.75H18.44Z" fill="#F5F5F6"/>
<path d="M24 34.75C23.59 34.75 23.25 34.41 23.25 34V29.22C23.25 28.81 23.59 28.47 24 28.47C24.41 28.47 24.75 28.81 24.75 29.22V34C24.75 34.41 24.41 34.75 24 34.75ZM34 25.75H14C13.59 25.75 13.25 25.41 13.25 25C13.25 24.59 13.59 24.25 14 24.25H34C34.41 24.25 34.75 24.59 34.75 25C34.75 25.41 34.41 25.75 34 25.75Z" fill="#F5F5F6"/>
<path d="M28.5 34.75H19.5C19.09 34.75 18.75 34.41 18.75 34C18.75 33.59 19.09 33.25 19.5 33.25H28.5C28.91 33.25 29.25 33.59 29.25 34C29.25 34.41 28.91 34.75 28.5 34.75Z" fill="#F5F5F6"/>
</svg>
