<svg width="48" height="48" viewBox="0 0 48 48" fill="none" xmlns="http://www.w3.org/2000/svg">
<circle cx="24" cy="24" r="24" fill="#4B4B59"/>
<path d="M16.3 31.92C16.13 31.92 15.96 31.86 15.82 31.75C14.81 30.92 14.25 29.59 14.25 28V20C14.25 16.58 15.58 15.25 19 15.25H25C27.04 15.25 29.18 15.63 29.64 18.48C29.71 18.89 29.43 19.27 29.02 19.34C28.61 19.41 28.23 19.13 28.16 18.72C27.95 17.42 27.4 16.75 25 16.75H19C16.42 16.75 15.75 17.42 15.75 20V28C15.75 28.65 15.88 29.86 16.77 30.59C17.09 30.85 17.14 31.33 16.87 31.65C16.73 31.83 16.51 31.92 16.3 31.92ZM25 32.75H20C19.59 32.75 19.25 32.41 19.25 32C19.25 31.59 19.59 31.25 20 31.25H25C27.58 31.25 28.25 30.58 28.25 28V23C28.25 22.59 28.59 22.25 29 22.25C29.41 22.25 29.75 22.59 29.75 23V28C29.75 31.42 28.42 32.75 25 32.75Z" fill="#909098"/>
<path d="M32.8003 30.039C32.3703 30.039 31.8403 29.899 31.2103 29.459L28.5703 27.609C28.2303 27.369 28.1503 26.899 28.3903 26.569C28.6303 26.229 29.0903 26.149 29.4303 26.389L32.0703 28.239C32.5103 28.549 32.8303 28.579 32.9603 28.509C33.0903 28.439 33.2503 28.169 33.2503 27.629V18.999C33.2503 18.589 33.5903 18.249 34.0003 18.249C34.4103 18.249 34.7503 18.589 34.7503 18.999V27.619C34.7503 29.049 34.0603 29.619 33.6503 29.829C33.4603 29.929 33.1703 30.039 32.8003 30.039ZM14.0209 34.9389C13.8309 34.9389 13.6409 34.8689 13.4909 34.7189C13.2009 34.4289 13.2009 33.9489 13.4909 33.6589L33.4909 13.6589C33.7809 13.3689 34.2609 13.3689 34.5509 13.6589C34.8409 13.9489 34.8409 14.4289 34.5509 14.7189L14.5509 34.7189C14.4109 34.8689 14.2109 34.9389 14.0209 34.9389Z" fill="#909098"/>
</svg>
