<svg width="48" height="48" viewBox="0 0 48 48" fill="none" xmlns="http://www.w3.org/2000/svg">
<circle cx="24" cy="24" r="24" fill="#384ADC"/>
<path d="M24.88 32.8606H18.81C15.26 32.8606 14 30.3706 14 28.0506V19.9506C14 16.4906 15.35 15.1406 18.81 15.1406H24.88C28.34 15.1406 29.69 16.4906 29.69 19.9506V28.0506C29.69 31.5106 28.34 32.8606 24.88 32.8606ZM18.81 16.6606C16.2 16.6606 15.52 17.3406 15.52 19.9506V28.0506C15.52 29.2806 15.95 31.3406 18.81 31.3406H24.88C27.49 31.3406 28.17 30.6606 28.17 28.0506V19.9506C28.17 17.3406 27.49 16.6606 24.88 16.6606H18.81Z" fill="#F5F5F6"/>
<path d="M32.7797 30.1105C32.3497 30.1105 31.7997 29.9705 31.1697 29.5305L28.4997 27.6605C28.2997 27.5205 28.1797 27.2905 28.1797 27.0405V20.9605C28.1797 20.7105 28.2997 20.4805 28.4997 20.3405L31.1697 18.4705C32.3597 17.6405 33.2297 17.8805 33.6397 18.0905C34.0497 18.3105 34.7497 18.8805 34.7497 20.3305V27.6605C34.7497 29.1105 34.0497 29.6905 33.6397 29.9005C33.4497 30.0105 33.1497 30.1105 32.7797 30.1105ZM29.6897 26.6405L32.0397 28.2805C32.4897 28.5905 32.8097 28.6205 32.9397 28.5505C33.0797 28.4805 33.2297 28.2005 33.2297 27.6605V20.3405C33.2297 19.7905 33.0697 19.5205 32.9397 19.4505C32.8097 19.3805 32.4897 19.4105 32.0397 19.7205L29.6897 21.3605V26.6405ZM23.5 23.7505C22.26 23.7505 21.25 22.7405 21.25 21.5005C21.25 20.2605 22.26 19.2505 23.5 19.2505C24.74 19.2505 25.75 20.2605 25.75 21.5005C25.75 22.7405 24.74 23.7505 23.5 23.7505ZM23.5 20.7505C23.09 20.7505 22.75 21.0905 22.75 21.5005C22.75 21.9105 23.09 22.2505 23.5 22.2505C23.91 22.2505 24.25 21.9105 24.25 21.5005C24.25 21.0905 23.91 20.7505 23.5 20.7505Z" fill="#F5F5F6"/>
</svg>
